Jump_normalized_Motion_pl15
version=1
nRows=10
nColumns=43
inDegrees=yes
endheader
time		pelvis_tilt		pelvis_list		pelvis_rotation		pelvis_tx		pelvis_ty		pelvis_tz		hip_flexion_r		hip_adduction_r		hip_rotation_r		knee_angle_r		ankle_angle_r		subtalar_angle_r		mtp_angle_r		hip_flexion_l		hip_adduction_l		hip_rotation_l		knee_angle_l		ankle_angle_l		subtalar_angle_l		mtp_angle_l		lumbar_extension		lumbar_bending		lumbar_rotation		neck_flexion		neck_lateral_bending		neck_rotation		arm_flex_r		arm_add_r		arm_rot_r		elbow_flex_r		pro_sup_r		wrist_flex_r		wrist_dev_r		hand_finger_flex_r		arm_flex_l		arm_add_l		arm_rot_l		elbow_flex_l		pro_sup_l		wrist_flex_l		wrist_dev_l		hand_finger_flex_l		
1.167500		0.018989		-0.927109		87.125520		0.062362		1.756063		1.927547		86.575589		-2.749072		5.240555		-149.941632		25.270749		6.528014		4.435679		84.960130		-6.902601		12.368757		-150.156036		22.740639		23.408781		21.436858		-69.189896		-3.846960		0.450105		43.194548		2.780592		-3.274483		28.289654		-17.803302		-5.421145		60.016976		95.804468		1.515958		-5.068536		-35.178230		32.034407		-16.646847		0.539527		53.323453		104.037205		-6.152628		-2.827031		-8.439763		
1.170732		0.068635		-1.074297		87.162645		0.062321		1.756011		1.926007		86.481796		-2.732920		5.262587		-149.962902		25.300607		6.669724		4.536575		84.898994		-6.828768		12.445276		-150.183152		22.787194		23.360238		21.401620		-68.996170		-3.777901		0.503233		43.258481		2.725937		-3.309211		28.654994		-18.006332		-5.167838		60.069748		96.019257		1.591115		-4.900967		-35.322210		32.619326		-16.773827		0.916267		53.253078		104.090269		-6.123872		-2.733357		-8.579099		
1.173965		0.106789		-1.237235		87.201831		0.062305		1.755997		1.924452		86.404090		-2.721663		5.277967		-149.973341		25.316888		6.784351		4.604131		84.842072		-6.757549		12.514334		-150.197862		22.833146		23.316096		21.382549		-68.791688		-3.709911		0.544297		43.347709		2.663384		-3.332535		29.050091		-18.204295		-4.908548		60.119104		96.214395		1.665698		-4.798235		-35.391329		33.225001		-16.876794		1.229437		53.200802		104.144843		-6.086562		-2.645304		-8.646016		
1.177197		0.182736		-1.358063		87.278690		0.062226		1.755875		1.922818		86.288339		-2.792661		5.254325		-150.027683		25.354868		7.001298		4.740027		84.781183		-6.690101		12.589201		-150.270350		22.921149		23.226245		21.343341		-68.587805		-3.584634		0.666223		43.413506		2.552365		-3.391371		29.444030		-18.537396		-4.510119		60.178163		96.574747		1.733218		-4.662381		-35.538425		33.937508		-17.028929		1.813862		53.047111		104.213272		-6.062760		-2.501043		-8.766353		
1.180429		0.207373		-1.479262		87.302664		0.062255		1.755671		1.921143		86.213247		-2.795167		5.270998		-150.104628		25.354351		7.061708		4.781774		84.717902		-6.661872		12.641357		-150.346706		22.941780		23.191179		21.330597		-68.389751		-3.537384		0.693091		43.426560		2.507737		-3.411127		29.793934		-18.622652		-4.422566		60.307802		96.676803		1.736788		-4.665228		-35.580116		34.481835		-17.074908		1.940494		53.143314		104.223451		-6.076277		-2.490517		-8.800105		
1.183662		0.269238		-1.667868		87.364218		0.062237		1.755832		1.919547		86.119356		-2.808516		5.244542		-150.070803		25.361533		7.213053		4.880162		84.663933		-6.584961		12.703382		-150.323941		23.025828		23.110681		21.301090		-68.162266		-3.446478		0.773253		43.578277		2.393036		-3.468087		30.268990		-18.813587		-4.161696		60.373695		96.928320		1.738972		-4.634250		-35.659777		35.257911		-17.173348		2.353965		53.038404		104.267305		-6.065818		-2.373528		-8.847057		
1.186894		0.318127		-1.822817		87.411656		0.062264		1.755870		1.917879		86.025262		-2.821412		5.218930		-150.091908		25.364968		7.329434		4.975611		84.602238		-6.548581		12.750535		-150.350539		23.110317		23.037626		21.273137		-67.946154		-3.380472		0.840901		43.692257		2.310605		-3.544409		30.729671		-18.935121		-3.996997		60.469755		97.144240		1.691334		-4.643631		-35.716872		36.007376		-17.251305		2.694767		53.009268		104.302961		-6.076638		-2.289488		-8.873013		
1.190126		0.339206		-1.982806		87.435232		0.062336		1.755922		1.916207		85.941853		-2.798042		5.224318		-150.102868		25.357486		7.388910		5.033830		84.535061		-6.512613		12.794169		-150.355908		23.150656		22.999179		21.255585		-67.725840		-3.356700		0.869040		43.705764		2.271518		-3.596951		31.182657		-18.983429		-3.928957		60.648588		97.264061		1.652601		-4.682879		-35.740192		36.682476		-17.292335		2.843407		53.128168		104.319623		-6.103265		-2.275101		-8.886911		
1.193359		0.354493		-2.150747		87.449159		0.062437		1.756127		1.914484		85.852279		-2.783105		5.214194		-150.107860		25.352051		7.470687		5.145669		84.455017		-6.516137		12.814318		-150.351468		23.229823		22.968668		21.229432		-67.509275		-3.350747		0.911842		43.881580		2.223834		-3.715986		31.746124		-19.062465		-3.783758		60.749159		97.477459		1.574888		-4.701121		-35.739385		37.519498		-17.356233		3.160717		53.114021		104.380937		-6.126274		-2.186255		-8.882099		
1.196591		0.344766		-2.339282		87.449766		0.062557		1.756337		1.912759		85.783646		-2.729154		5.228123		-150.089805		25.334433		7.495908		5.186568		84.380641		-6.507191		12.834668		-150.312704		23.232644		22.980321		21.221831		-67.275883		-3.365959		0.901825		43.912780		2.214177		-3.768521		32.295231		-19.077429		-3.712874		60.973236		97.544828		1.556875		-4.745965		-35.716429		38.245134		-17.374157		3.218232		53.279591		104.413485		-6.148609		-2.186935		-8.876249		
